<?xml version="1.0" encoding="utf-8"?>
<!-- Generator: Adobe Illustrator 23.0.4, SVG Export Plug-In . SVG Version: 6.00 Build 0)  -->
<svg version="1.1" id="Layer_1" xmlns="http://www.w3.org/2000/svg" xmlns:xlink="http://www.w3.org/1999/xlink" x="0px" y="0px"
	 viewBox="0 0 48.1 46.4" style="enable-background:new 0 0 48.1 46.4;" xml:space="preserve">
<title>verbal</title>
<g>
	<g id="Layer_134">
		<g>
			<path d="M31.1,23.1v-2h1.1c1.8,0,3.4-1.2,4.1-2.9c0.3-0.8,1-1.3,1.9-1.3h0.2c4,0,7.3-3.3,7.3-7.3V9.3c0-4-3.3-7.3-7.3-7.3h-8.1
				c-4,0-7.3,3.3-7.3,7.3v0.3c0,4,3.3,7.3,7.3,7.3h0.9v2h-0.9c-5.1,0-9.3-4.2-9.3-9.3V9.3C21,4.2,25.2,0,30.3,0h8.1
				c5.1,0,9.3,4.2,9.3,9.3v0.3c0,5.1-4.2,9.3-9.3,9.3h-0.2c-0.9,2.5-3.2,4.2-5.9,4.2L31.1,23.1z"/>
		</g>
		<g>
			<rect x="28.1" y="8.8" width="12.4" height="2"/>
		</g>
		<g>
			<path d="M24,31.6c-1.5,0-2.9-0.3-4.3-0.8c-2.2-0.9-4.4-1.3-6.8-1.3H7.1v-2h5.8c2.6,0,5.1,0.5,7.5,1.5c2.3,0.9,4.9,0.9,7.3,0
				s4.9-1.4,7.5-1.5H41v2h-5.8c-2.3,0-4.6,0.5-6.8,1.3C27,31.3,25.5,31.6,24,31.6z"/>
		</g>
		<g>
			<path d="M24,46.4c-10.8,0-20.3-5.3-23.2-13c-1-2.6-1-5.4,0-7.9c1.1-3,5.2-12.8,12.7-12.8c1.8-0.1,3.6,0.2,5.3,0.7l-0.6,1.9
				c-1.5-0.5-3.1-0.7-4.7-0.6c-6.2,0-9.9,8.8-10.9,11.5c-0.8,2.1-0.8,4.4,0,6.5C5.3,39.6,14,44.4,24,44.4s18.8-4.8,21.4-11.7
				c0.8-2.1,0.8-4.4,0-6.5c-0.5-1.2-1-2.4-1.6-3.6l1.8-0.9c0.6,1.2,1.2,2.5,1.7,3.8c1,2.5,1,5.4,0,7.9C44.4,41.1,34.8,46.4,24,46.4z
				"/>
		</g>
	</g>
</g>
</svg>
